<svg width="80" height="80" xmlns="http://www.w3.org/2000/svg">
 <g>
  <title>Layer 1</title>
  <g id="svg_21">
   <g id="svg_1">
    <g id="svg_2">
     <path id="svg_3" d="m5.74876,74.25125l2.30025,-15.62133l50.00444,-50.00444c1.80289,-1.80478 4.94712,-1.80478 6.7519,0l6.56729,6.56917c0.90239,0.90239 1.39973,2.10055 1.39973,3.37595s-0.49734,2.47357 -1.39973,3.37596l-50.00256,50.00444l-15.62133,2.30025zm5.84575,-13.83917l-1.37902,9.37243l9.37242,-1.37903l49.12277,-49.12465c0.19027,-0.19027 0.29578,-0.44272 0.29578,-0.71211s-0.10551,-0.52184 -0.29578,-0.71023l-6.56918,-6.56917c-0.38055,-0.38055 -1.04367,-0.38055 -1.42234,0l-49.12466,49.12277z" fill="#999999"/>
    </g>
    <g id="svg_4">
     <rect id="svg_5" height="2" width="8.001" fill="#999999" transform="matrix(1.3321079066585402,1.3321079066585402,-1.3321079066585402,1.3321079066585402,50.40888414819996,-45.14761563740794) " y="50.90202" x="24.05244"/>
    </g>
    <g id="svg_6">
     <rect id="svg_7" height="2" width="8" fill="#999999" transform="matrix(1.3321079066585402,1.3321079066585402,-1.3321079066585402,1.3321079066585402,33.62688663256576,-85.6630248459912) " y="29.39602" x="45.55844"/>
    </g>
   </g>
   <g id="svg_8">
    <g id="svg_9">
     <polygon id="svg_10" points="59.31565856933594,76.632497549057 40.470977783203125,57.78969740867615 43.136695861816406,55.12585997581482 59.31565856933594,71.30481505393982 71.30481719970703,59.315656423568726 54.8206672668457,42.831498861312866 57.484500885009766,40.167665243148804 76.63249969482422,59.315656423568726 " fill="#999999"/>
    </g>
    <g id="svg_11">
     <polygon id="svg_12" points="22.624759674072266,39.941598653793335 3.367504119873047,20.68433928489685 20.684341430664062,3.367504119873047 39.82480239868164,22.50607466697693 37.16095733642578,25.169910192489624 20.684341430664062,8.695180654525757 8.695181846618652,20.68433928489685 25.28860092163086,37.27776503562927 " fill="#999999"/>
    </g>
    <g id="svg_13">
     <rect id="svg_14" height="4" width="2" fill="#999999" transform="matrix(1.3321079066585402,1.3321079066585402,-1.3321079066585402,1.3321079066585402,19.647571810660747,-62.89492511934368) " y="25.48102" x="30.26044"/>
    </g>
    <g id="svg_15">
     <rect id="svg_16" height="4" width="2" fill="#999999" transform="matrix(1.3321079066585402,1.3321079066585402,-1.3321079066585402,1.3321079066585402,27.640219250612,-66.20531970791725) " y="29.72402" x="34.50244"/>
    </g>
    <g id="svg_17">
     <rect id="svg_18" height="4" width="2" fill="#999999" transform="matrix(1.3321079066585402,1.3321079066585402,-1.3321079066585402,1.3321079066585402,51.61872674140618,-76.13744542520547) " y="42.45202" x="47.23044"/>
    </g>
    <g id="svg_19">
     <rect id="svg_20" height="4" width="2" fill="#999999" transform="matrix(1.3321079066585402,1.3321079066585402,-1.3321079066585402,1.3321079066585402,59.61118579104393,-79.44821679440606) " y="46.69502" x="51.47344"/>
    </g>
   </g>
  </g>
 </g>
</svg>