<svg xmlns="http://www.w3.org/2000/svg" xmlns:xlink="http://www.w3.org/1999/xlink" version="1.1" x="0px" y="0px" viewBox="0 0 100 100" enable-background="new 0 0 100 100" xml:space="preserve"><path d="M94.813,92.386l-8.411-16.594h1.937c1.308,0,2.198-1.447,1.606-2.614l-8.411-16.593h1.938c1.312,0,2.192-1.447,1.603-2.614  l-9.736-19.208c-0.654-1.292-2.567-1.273-3.214,0.004l-6.61,13.046L60.234,37.4h4.368c1.31,0,2.198-1.445,1.608-2.614l-14.599-28.8  c-0.65-1.286-2.559-1.278-3.211,0l-14.598,28.8C33.21,35.957,34.096,37.4,35.41,37.4h4.364l-5.279,10.415l-6.611-13.046  c-0.649-1.276-2.561-1.298-3.215-0.004l-9.736,19.208c-0.593,1.166,0.295,2.614,1.604,2.614h1.938l-8.411,16.593  c-0.591,1.168,0.296,2.614,1.605,2.614h1.938L5.195,92.386C4.602,93.556,5.496,95,6.803,95H20.81h58.393h14.002  c0.567,0,1.115-0.285,1.449-0.74C95.045,93.724,95.114,92.982,94.813,92.386z M18.142,74.806c0.591-1.167-0.296-2.614-1.605-2.614  h-1.938L23.01,55.6c0.591-1.167-0.296-2.614-1.605-2.614H19.47l6.805-13.426l6.2,12.238l-0.604,1.191h-0.734  c-1.306,0-2.198,1.445-1.607,2.611l0.507,1.004l-3.539,6.982c-0.591,1.168,0.296,2.614,1.605,2.614h4.369L19.7,91.4H9.731  L18.142,74.806z M23.736,91.4L37.01,65.214c0.591-1.167-0.296-2.614-1.605-2.614h-4.369L44.31,36.414  c0.591-1.167-0.296-2.614-1.605-2.614h-4.366l11.667-23.018L61.673,33.8h-4.37c-1.308,0-2.198,1.447-1.606,2.614L68.972,62.6h-4.369  c-1.308,0-2.198,1.447-1.606,2.614L76.271,91.4H23.736z M80.308,91.4L67.533,66.2h4.369c1.308,0,2.198-1.447,1.606-2.614  l-3.539-6.982l0.507-1.004c0.587-1.167-0.298-2.611-1.607-2.611h-0.733l-0.604-1.192l6.2-12.237l6.805,13.426h-1.935  c-1.308,0-2.198,1.447-1.606,2.614l8.411,16.593h-1.937c-1.308,0-2.198,1.447-1.606,2.614L90.276,91.4H80.308z M17.452,29.903  C10.586,29.903,5,24.317,5,17.451S10.586,5,17.452,5s12.452,5.586,12.452,12.451S24.319,29.903,17.452,29.903z M17.452,8.6  c-4.881,0-8.852,3.971-8.852,8.851s3.971,8.851,8.852,8.851s8.852-3.971,8.852-8.851S22.333,8.6,17.452,8.6z" fill="#8c8c8c"></path></svg>